<?xml version="1.0" encoding="utf-8"?>
<!-- Generator: Adobe Illustrator 22.1.0, SVG Export Plug-In . SVG Version: 6.00 Build 0)  -->
<svg version="1.1" id="Layer_1" xmlns="http://www.w3.org/2000/svg" xmlns:xlink="http://www.w3.org/1999/xlink" x="0px" y="0px"
	 viewBox="0 0 520 520" style="enable-background:new 0 0 520 520;" xml:space="preserve">
<style type="text/css">
	.st0{fill:#10A9F5;}
	.st1{opacity:0.3;fill:#FCFCFC;}
	.st2{fill:#57C3F8;stroke:#FFFFFF;stroke-width:36;stroke-miterlimit:10;}
	.st3{fill:#FFFFFF;}
</style>
<g>
	<circle class="st0" cx="260" cy="260" r="250"/>
</g>
<path class="st1" d="M456.5,350.8c-33,76.6-109.2,130.2-198,130.2C139.5,481,43,384.5,43,265.5c0-21.6,3.2-42.5,9.1-62.2"/>
<ellipse transform="matrix(0.342 -0.9397 0.9397 0.342 -87.1238 419.7271)" class="st2" cx="256.2" cy="272.1" rx="34.4" ry="197.9"/>
<path class="st3" d="M457.8,287.5l-10.3-131.6l9.3-7.8c3-2.6,3.4-7.1,0.8-10.1c-2.5-3-7-3.4-10-0.9l-9.3,7.8l-127.8-33
	c-3.8-1-7.7,1.3-8.7,5.1c-0.7,2.8,0.3,5.8,2.7,7.6l50.9,37l15.7,39.7l-62.6,52.5l15.5,5.6l56.3-47.2l36.3,22.3l27.6,56.6
	c0.8,1.7,2.2,3,4,3.6c1.4,0.5,2.9,0.6,4.3,0.2C455.9,294.1,458.1,290.9,457.8,287.5L457.8,287.5z"/>
<rect x="309.6" y="190" transform="matrix(0.6455 0.7638 -0.7638 0.6455 308.349 -150.8079)" class="st3" width="14" height="133.4"/>
<rect x="217.6" y="93" class="st3" width="31.4" height="197.4"/>
<rect x="173.8" y="40.1" transform="matrix(0.1378 -0.9905 0.9905 0.1378 66.004 272.4437)" class="st3" width="31.4" height="116.3"/>
</svg>
